# xmcd CD database file
#
# Track frame offsets:
#	150
#	16030
#	30725
#	45295
#	61555
#	81045
#	97250
#	116125
#	130700
#	148750
#	159515
#	174740
#	189707
#	204120
#	220335
#	233390
#	249670
#	263540
#	280170
#	296260
#
# Disc length: 4173 seconds
#
# Revision: 0
# Processed by: cddbd v1.4PL0 Copyright (c) Steve Scherf et al.
# Submitted via: CDex 1.40Beta9
#
DISCID=0c104b14
DTITLE=Almir Sater - 20 preferidas de Almir Sater
DYEAR=1996
DGENRE=Country
TTITLE0=Tristeza do Jeca
TTITLE1=Trem do pantanal
TTITLE2=O último condor
TTITLE3=Galopada
TTITLE4=Rio de Lágrimas
TTITLE5=Boiero do Nabileque
TTITLE6=Sonhos Guaranis
TTITLE7=Varandas
TTITLE8=Doma
TTITLE9=Canta Viola
TTITLE10=Trem de Lata
TTITLE11=Razões
TTITLE12=Peão
TTITLE13=Estradeiro
TTITLE14=Benzinho
TTITLE15=Na subida do balão
TTITLE16=Viola e vinho velho
TTITLE17=Água que correu
TTITLE18=Missões naturais
TTITLE19=Cavaleiro da lua
EXTD=YEAR: 1996 ID3G: 2
EXTT0=
EXTT1=
EXTT2=
EXTT3=
EXTT4=
EXTT5=
EXTT6=
EXTT7=
EXTT8=
EXTT9=
EXTT10=
EXTT11=
EXTT12=
EXTT13=
EXTT14=
EXTT15=
EXTT16=
EXTT17=
EXTT18=
EXTT19=
PLAYORDER=
